<svg id="Layer_1" enable-background="new 0 0 512 512" height="512" viewBox="0 0 512 512" width="512" xmlns="http://www.w3.org/2000/svg"><g><path d="m20.089 144.226h30.905v352.322h-30.905z" fill="#be652b"/><path d="m461.006 144.226h30.905v352.322h-30.905z" fill="#be652b"/><path d="m162.378 75.084h-86.535v-56.541c0-10.241 8.302-18.543 18.543-18.543h49.449c10.241 0 18.543 8.302 18.543 18.543z" fill="#ffd54f"/><path d="m143.835 0h-30.905c10.241 0 18.543 8.302 18.543 18.543v56.541h30.905v-56.541c0-10.241-8.302-18.543-18.543-18.543z" fill="#ffc328"/><path d="m119.111 405.891c-21.62 0-39.147-17.527-39.147-39.147v-285.109h78.294v285.109c-.001 21.621-17.527 39.147-39.147 39.147z" fill="#bbf7ff"/><path d="m127.352 81.635v285.109c0 16.131-9.76 29.979-23.694 35.973 4.741 2.039 9.964 3.174 15.453 3.174 21.62 0 39.147-17.527 39.147-39.147v-285.109z" fill="#8bf0ff"/><path d="m79.964 221.582v145.163c0 21.62 17.527 39.147 39.147 39.147 21.62 0 39.147-17.527 39.147-39.147v-145.163z" fill="#f75632"/><path d="m127.352 221.582v145.163c0 16.131-9.76 29.979-23.694 35.973 4.741 2.039 9.964 3.174 15.453 3.174 21.62 0 39.147-17.527 39.147-39.147v-145.163z" fill="#e33629"/><path d="m299.849 75.084h-86.535v-56.541c0-10.241 8.302-18.543 18.543-18.543h49.449c10.241 0 18.543 8.302 18.543 18.543z" fill="#29cef6"/><path d="m281.305 0h-30.905c10.241 0 18.543 8.302 18.543 18.543v56.541h30.905v-56.541c.001-10.241-8.301-18.543-18.543-18.543z" fill="#22b5ed"/><path d="m256.581 405.891c-21.62 0-39.147-17.527-39.147-39.147v-285.109h78.294v285.109c0 21.621-17.527 39.147-39.147 39.147z" fill="#bbf7ff"/><path d="m264.823 81.635v285.109c0 16.131-9.76 29.979-23.694 35.973 4.741 2.039 9.964 3.174 15.453 3.174 21.62 0 39.147-17.527 39.147-39.147v-285.109z" fill="#8bf0ff"/><path d="m217.434 221.582v145.163c0 21.62 17.527 39.147 39.147 39.147 21.62 0 39.147-17.527 39.147-39.147v-145.163z" fill="#f75632"/><path d="m264.823 221.582v145.163c0 16.131-9.76 29.979-23.694 35.973 4.741 2.039 9.964 3.174 15.453 3.174 21.62 0 39.147-17.527 39.147-39.147v-145.163z" fill="#e33629"/><path d="m437.319 75.084h-86.535v-56.541c0-10.241 8.302-18.543 18.543-18.543h49.449c10.241 0 18.543 8.302 18.543 18.543z" fill="#00d9c8"/><path d="m418.776 0h-30.905c10.241 0 18.543 8.302 18.543 18.543v56.541h30.905v-56.541c0-10.241-8.302-18.543-18.543-18.543z" fill="#00bcb9"/><path d="m394.052 405.891c-21.62 0-39.147-17.527-39.147-39.147v-285.109h78.294v285.109c0 21.621-17.527 39.147-39.147 39.147z" fill="#bbf7ff"/><path d="m402.293 81.635v285.109c0 16.131-9.76 29.979-23.694 35.973 4.741 2.039 9.964 3.174 15.453 3.174 21.62 0 39.147-17.527 39.147-39.147v-285.109z" fill="#8bf0ff"/><path d="m354.905 221.582v145.163c0 21.62 17.527 39.147 39.147 39.147 21.62 0 39.147-17.527 39.147-39.147v-145.163z" fill="#f75632"/><path d="m402.293 221.582v145.163c0 16.131-9.76 29.979-23.694 35.973 4.741 2.039 9.964 3.174 15.453 3.174 21.62 0 39.147-17.527 39.147-39.147v-145.163z" fill="#e33629"/><path d="m508.909 512h-505.818c-1.707 0-3.091-1.384-3.091-3.091v-12.342c0-8.545 6.927-15.473 15.473-15.473h481.055c8.545 0 15.473 6.927 15.473 15.473v12.342c-.001 1.707-1.385 3.091-3.092 3.091z" fill="#d67b42"/><path d="m496.527 481.095h-30.905c8.545 0 15.473 6.927 15.473 15.473v12.342c0 1.707-1.384 3.091-3.091 3.091h30.905c1.707 0 3.091-1.384 3.091-3.091v-12.342c0-8.546-6.927-15.473-15.473-15.473z" fill="#be652b"/><path d="m20.089 159.678v-26.905c0-2.209 1.791-4 4-4h463.823c2.209 0 4 1.791 4 4v26.905z" fill="#d67b42"/><path d="m162.827 94.777h-88.595c-5.69 0-10.302-4.612-10.302-10.302v-10.302c0-5.69 4.612-10.302 10.302-10.302h88.596c5.69 0 10.302 4.612 10.302 10.302v10.302c-.001 5.689-4.613 10.302-10.303 10.302z" fill="#f3f3f3"/><path d="m162.827 63.871h-30.905c5.69 0 10.302 4.612 10.302 10.302v10.302c0 5.69-4.612 10.302-10.302 10.302h30.905c5.69 0 10.302-4.612 10.302-10.302v-10.302c0-5.69-4.612-10.302-10.302-10.302z" fill="#e4e4e4"/><path d="m300.298 94.777h-88.596c-5.69 0-10.302-4.612-10.302-10.302v-10.302c0-5.69 4.612-10.302 10.302-10.302h88.596c5.69 0 10.302 4.612 10.302 10.302v10.302c0 5.689-4.613 10.302-10.302 10.302z" fill="#f3f3f3"/><path d="m300.298 63.871h-30.905c5.69 0 10.302 4.612 10.302 10.302v10.302c0 5.69-4.612 10.302-10.302 10.302h30.905c5.69 0 10.302-4.612 10.302-10.302v-10.302c0-5.69-4.613-10.302-10.302-10.302z" fill="#e4e4e4"/><path d="m437.768 94.777h-88.596c-5.69 0-10.302-4.612-10.302-10.302v-10.302c0-5.69 4.612-10.302 10.302-10.302h88.596c5.69 0 10.302 4.612 10.302 10.302v10.302c0 5.689-4.612 10.302-10.302 10.302z" fill="#f3f3f3"/><path d="m437.768 63.871h-30.905c5.69 0 10.302 4.612 10.302 10.302v10.302c0 5.69-4.612 10.302-10.302 10.302h30.905c5.69 0 10.302-4.612 10.302-10.302v-10.302c0-5.69-4.612-10.302-10.302-10.302z" fill="#e4e4e4"/></g></svg>